<svg width="21" height="24" viewBox="0 0 21 24" fill="none" xmlns="http://www.w3.org/2000/svg">
<path d="M13.7889 14.6769C13.6421 14.6289 12.7144 14.2108 13.2941 12.4486H13.2858C14.7969 10.8923 15.9516 8.38801 15.9516 5.92247C15.9516 2.1314 13.4307 0.144012 10.5009 0.144012C7.56916 0.144012 5.06209 2.13047 5.06209 5.92247C5.06209 8.39817 6.21039 10.9126 7.7307 12.4652C8.32332 14.0197 7.26363 14.5966 7.04209 14.6769C3.97378 15.7874 0.373779 17.8099 0.373779 19.8065V20.5551C0.373779 23.2754 5.64824 23.8939 10.5295 23.8939C15.4181 23.8939 20.6261 23.2754 20.6261 20.5551V19.8065C20.6261 17.7499 17.0085 15.7431 13.7889 14.6769ZM8.69716 22.716C8.69716 20.3631 10.1953 17.1868 10.1953 17.1868L9.1587 16.3736C9.1587 15.5963 10.4999 14.7831 10.4999 14.7831C10.4999 14.7831 11.8375 15.6092 11.8375 16.3736L10.8045 17.1868C10.8045 17.1868 12.3027 20.3511 12.3027 22.7419C12.3027 23.1166 8.69716 23.0299 8.69716 22.716Z" fill="#C0C8CE"/>
</svg>
