<svg width="31" height="23" viewBox="0 0 31 23" fill="none" xmlns="http://www.w3.org/2000/svg">
<path d="M24.8839 20.427H18.6316C18.2865 20.427 18.0063 20.1532 18.0063 19.8158C18.0063 19.4785 18.2865 19.2047 18.6316 19.2047H24.8839C25.9181 19.2047 26.7596 18.3821 26.7596 17.3713V16.149C26.7596 15.8116 27.0397 15.5378 27.3849 15.5378H28.6241C28.9692 15.5378 29.2493 15.264 29.2493 14.9267V7.59297C29.2493 7.25562 28.9692 6.98183 28.6241 6.98183H27.3849C27.0397 6.98183 26.7596 6.70803 26.7596 6.37068V5.1484C26.7596 4.13757 25.9181 3.31497 24.8839 3.31497H21.1325C20.7874 3.31497 20.5073 3.04118 20.5073 2.70383C20.5073 2.36647 20.7874 2.09268 21.1325 2.09268H24.8839C26.6071 2.09268 28.0101 3.46409 28.0101 5.1484V5.75954H28.6241C29.6582 5.75954 30.4998 6.58214 30.4998 7.59297V14.9267C30.4998 15.9375 29.6582 16.7601 28.6241 16.7601H28.0101V17.3713C28.0101 19.0556 26.6071 20.427 24.8839 20.427Z" fill="#FCAF77"/>
<path d="M8.62805 20.427H3.62617C1.90303 20.427 0.5 19.0556 0.5 17.3713V5.1484C0.5 3.46409 1.90303 2.09268 3.62617 2.09268H12.3795C12.7246 2.09268 13.0047 2.36647 13.0047 2.70383C13.0047 3.04118 12.7246 3.31497 12.3795 3.31497H3.62617C2.59204 3.31497 1.75047 4.13757 1.75047 5.1484V17.3713C1.75047 18.3821 2.59204 19.2047 3.62617 19.2047H8.62805C8.97318 19.2047 9.25329 19.4785 9.25329 19.8158C9.25329 20.1532 8.97318 20.427 8.62805 20.427Z" fill="#FCAF77"/>
<path d="M12.1334 22.8716C12.0346 22.8716 11.9333 22.8484 11.8408 22.8007C11.572 22.6614 11.4444 22.3521 11.5407 22.0686L14.1592 14.3156H9.25358C9.021 14.3156 8.80842 14.1897 8.69963 13.988C8.59208 13.7864 8.60709 13.5431 8.73964 13.3561L17.4004 1.13324C17.5705 0.893676 17.8943 0.808116 18.1644 0.920566C18.4383 1.03791 18.5896 1.32759 18.5258 1.61238L16.7652 9.42646H21.7583C21.9959 9.42646 22.2134 9.55847 22.3197 9.76748C22.4248 9.97649 22.3985 10.2258 22.2535 10.4104L12.6286 22.6333C12.5073 22.7885 12.3222 22.8716 12.1334 22.8716ZM10.4478 13.0933H15.0245C15.2258 13.0933 15.4134 13.1874 15.5309 13.3463C15.6485 13.5052 15.681 13.7094 15.6172 13.8964L13.8791 19.041L20.4878 10.6487H15.9874C15.7985 10.6487 15.6185 10.5644 15.4997 10.4202C15.3809 10.2759 15.3359 10.0865 15.3759 9.9056L16.6213 4.37964L10.4478 13.0933Z" fill="#FCAF77"/>
</svg>
