<svg width="149" height="106" viewBox="0 0 149 106" fill="none" xmlns="http://www.w3.org/2000/svg">
<rect x="0.5" y="0.5" width="148" height="105" rx="47.5" fill="#0C323E" stroke="url(#paint0_linear_62_30)"/>
<path opacity="0.5" d="M114.468 37.7343C116.619 42.9441 117.739 48.5693 117.711 54.1985C117.691 59.8263 116.535 65.4462 114.344 70.6388C112.152 75.8314 108.925 80.5927 104.895 84.5552C100.87 88.5256 96.0425 91.6825 90.789 93.819C85.5342 95.9515 79.8604 97.0622 74.1826 97.0343C68.5061 97.0158 62.8377 95.8692 57.6002 93.6956C52.3641 91.5219 47.5616 88.3239 43.565 84.3269C39.5602 80.3366 36.376 75.5501 34.2211 70.3416C32.0701 65.1317 30.9498 59.5065 30.9779 53.8773C30.9967 48.2495 32.1531 42.6296 34.3442 37.437C36.5366 32.2444 39.7637 27.4844 43.7938 23.5207C47.8186 19.5503 52.6465 16.3933 57.9 14.2568C63.1549 12.1243 68.8287 11.0136 74.5065 11.0415C80.1829 11.06 85.8514 12.2066 91.0888 14.3802C96.3263 16.5539 101.127 19.7533 105.125 23.7489C109.129 27.7392 112.313 32.5258 114.468 37.7343Z" fill="url(#paint1_linear_62_30)" fill-opacity="0.2"/>
<circle cx="74" cy="54" r="44" stroke="url(#paint2_linear_62_30)" stroke-width="2"/>
<path d="M115.49 72.9123C111.623 81.2977 105.049 88.4131 96.937 93.0112L95.3375 90.1462C102.84 85.8799 108.918 79.2926 112.493 71.5362C116.151 63.6976 117.28 54.8424 115.698 46.5221L118.936 45.8758C120.657 54.873 119.442 64.4473 115.49 72.9123Z" fill="url(#paint3_linear_62_30)"/>
<path d="M118.936 45.8741C120.657 54.8726 119.442 64.4457 115.488 72.912C111.621 81.2973 105.048 88.4128 96.9353 93.0109L95.3358 90.1459C102.838 85.8795 108.916 79.2922 112.491 71.5359C116.149 63.6972 117.279 54.8421 115.697 46.5217L118.936 45.8741Z" fill="url(#paint4_linear_62_30)"/>
<path d="M118.936 45.8741C120.657 54.8726 119.442 64.4457 115.488 72.912C111.621 81.2973 105.048 88.4128 96.9353 93.0109L95.3358 90.1459C102.838 85.8795 108.916 79.2922 112.491 71.5359C116.149 63.6972 117.279 54.8421 115.697 46.5217L118.936 45.8741Z" fill="url(#paint5_linear_62_30)"/>
<path d="M115.979 35.2387L112.927 36.4901C110.754 31.4979 107.551 26.8918 103.633 23.1351C99.722 19.3743 94.9811 16.3368 89.8895 14.3224L91.062 11.261C96.5712 13.432 101.7 16.715 105.932 20.7849C110.174 24.8496 113.637 29.8351 115.979 35.2387Z" fill="url(#paint6_linear_62_30)"/>
<path d="M115.979 35.2387L112.927 36.4901C110.754 31.4979 107.551 26.8918 103.633 23.1351C99.722 19.3743 94.9811 16.3368 89.8895 14.3224L91.062 11.261C96.5712 13.432 101.7 16.715 105.932 20.7849C110.174 24.8496 113.637 29.8351 115.979 35.2387Z" fill="url(#paint7_linear_62_30)"/>
<path d="M65.0592 95.0943L64.5372 98.3282C55.7715 96.8021 47.4462 92.6353 41.0282 86.551C34.455 80.3658 29.8105 72.0574 27.9446 63.1545C26.0694 54.3153 27.005 44.8603 30.5828 36.5293C34.0494 28.3775 40.0217 21.278 47.4435 16.4716L49.213 19.2371C42.3546 23.6918 36.8348 30.2619 33.6251 37.8046C30.3097 45.5291 29.441 54.2967 31.1797 62.4883C32.9104 70.7503 37.2189 78.4549 43.3103 84.1836C49.2451 89.8128 56.9467 93.6717 65.0592 95.0943Z" fill="url(#paint8_linear_62_30)"/>
<path d="M108.763 18.3411C111.772 22.269 107.699 23.8973 99.6668 21.9771C91.6347 20.0569 82.6829 15.3168 79.674 11.3889C76.6651 7.46094 80.7381 5.83403 88.7703 7.75289C96.8025 9.67307 105.754 14.4131 108.763 18.3411Z" fill="url(#paint9_radial_62_30)"/>
<path d="M114.813 21.6891C117.62 28.9797 110.676 31.8341 99.3015 28.0654C87.9271 24.2967 76.431 15.3301 73.6242 8.03952C70.8174 0.74893 77.7614 -2.1068 89.1358 1.66324C100.51 5.43195 112.006 14.3986 114.813 21.6891Z" fill="url(#paint10_radial_62_30)"/>
<path d="M106.211 47.2251C108.082 56.0682 99.979 60.8442 88.1121 57.8942C76.2438 54.9443 65.1064 45.3845 63.2339 36.5413C61.3627 27.6981 69.4658 22.9222 81.3327 25.8721C93.201 28.8221 104.338 38.3819 106.211 47.2251Z" fill="url(#paint11_radial_62_30)"/>
<path d="M85.847 50.3236C94.935 50.5837 97.656 59.5289 91.925 70.3061C86.1934 81.0821 74.1813 89.6078 65.0921 89.3484C56.0041 89.0883 53.2831 80.1431 59.014 69.3659C64.7457 58.5898 76.759 50.0634 85.847 50.3236Z" fill="url(#paint12_radial_62_30)"/>
<path d="M82.1725 66.2305C84.3221 64.8305 86.0033 62.9514 87.2146 60.5907H91.8055C90.1793 64.301 87.853 67.2257 84.8241 69.3662C81.7978 71.508 78.2281 72.5776 74.1176 72.5776C71.5036 72.5776 69.2161 72.0468 67.2579 70.9852C65.297 69.9236 63.7591 68.4134 62.6442 66.4587C61.5292 64.504 60.9069 62.2282 60.7797 59.6299H56L56.3815 57.2519H60.7797C60.8105 56.3761 60.9069 55.4485 61.0675 54.4705C61.2254 53.4925 61.3833 52.7175 61.5453 52.1429H57.2421L57.6262 49.7663H62.3109C63.8073 45.6512 66.1523 42.3735 69.3392 39.9278C72.5235 37.4848 76.1267 36.2626 80.1407 36.2626C84.2512 36.2626 87.4702 37.3322 89.7965 39.474C92.1228 41.6158 93.4786 44.5392 93.8601 48.2495H89.2718C88.8234 45.8901 87.7567 44.0084 86.0688 42.6084C84.3784 41.211 82.1471 40.5091 79.3751 40.5091C76.7638 40.5091 74.3331 41.3278 72.0845 42.9627C69.8385 44.5989 68.1078 46.8668 66.8965 49.7663H78.5627L78.1785 52.1429H66.0854C65.9275 52.683 65.7508 53.4593 65.5594 54.4705C65.4322 55.414 65.3372 56.3416 65.2743 57.2519H77.3219L76.8909 59.6299H65.3707C65.6865 62.3278 66.6904 64.4523 68.3809 66.0022C70.07 67.5535 72.1889 68.3298 74.7373 68.3298C77.5401 68.3298 80.0203 67.6305 82.1725 66.2305Z" fill="url(#paint13_linear_62_30)"/>
<path d="M82.1725 66.2305C84.3221 64.8305 86.0033 62.9514 87.2146 60.5907H91.8055C90.1793 64.301 87.853 67.2257 84.8241 69.3662C81.7978 71.508 78.2281 72.5776 74.1176 72.5776C71.5036 72.5776 69.2161 72.0468 67.2579 70.9852C65.297 69.9236 63.7591 68.4134 62.6442 66.4587C61.5292 64.504 60.9069 62.2282 60.7797 59.6299H56L56.3815 57.2519H60.7797C60.8105 56.3761 60.9069 55.4485 61.0675 54.4705C61.2254 53.4925 61.3833 52.7175 61.5453 52.1429H57.2421L57.6262 49.7663H62.3109C63.8073 45.6512 66.1523 42.3735 69.3392 39.9278C72.5235 37.4848 76.1267 36.2626 80.1407 36.2626C84.2512 36.2626 87.4702 37.3322 89.7965 39.474C92.1228 41.6158 93.4786 44.5392 93.8601 48.2495H89.2718C88.8234 45.8901 87.7567 44.0084 86.0688 42.6084C84.3784 41.211 82.1471 40.5091 79.3751 40.5091C76.7638 40.5091 74.3331 41.3278 72.0845 42.9627C69.8385 44.5989 68.1078 46.8668 66.8965 49.7663H78.5627L78.1785 52.1429H66.0854C65.9275 52.683 65.7508 53.4593 65.5594 54.4705C65.4322 55.414 65.3372 56.3416 65.2743 57.2519H77.3219L76.8909 59.6299H65.3707C65.6865 62.3278 66.6904 64.4523 68.3809 66.0022C70.07 67.5535 72.1889 68.3298 74.7373 68.3298C77.5401 68.3298 80.0203 67.6305 82.1725 66.2305Z" fill="url(#paint14_linear_62_30)"/>
<path d="M78.9664 66.2305C81.116 64.8305 82.7971 62.9514 84.0084 60.5907H88.5994C86.9731 64.301 84.6469 67.2257 81.6179 69.3662C78.5916 71.508 75.0219 72.5776 70.9114 72.5776C68.2974 72.5776 66.0099 72.0468 64.0517 70.9852C62.0909 69.9236 60.553 68.4134 59.438 66.4587C58.3231 64.504 57.7007 62.2282 57.5735 59.6299H52.7938L53.1753 57.2519H57.5735C57.6043 56.3761 57.7007 55.4485 57.8613 54.4705C58.0192 53.4925 58.1772 52.7175 58.3391 52.1429H54.0359L54.4201 49.7663H59.1047C60.6012 45.6512 62.9462 42.3735 66.1331 39.9278C69.3173 37.4848 72.9205 36.2626 76.9346 36.2626C81.045 36.2626 84.264 37.3322 86.5903 39.474C88.9166 41.6158 90.2725 44.5392 90.6539 48.2495H86.0656C85.6173 45.8901 84.5505 44.0084 82.8627 42.6084C81.1722 41.211 78.9409 40.5091 76.169 40.5091C73.5576 40.5091 71.1269 41.3278 68.8783 42.9627C66.6323 44.5989 64.9017 46.8668 63.6903 49.7663H75.3565L74.9724 52.1429H62.8792C62.7213 52.683 62.5446 53.4593 62.3532 54.4705C62.2261 55.414 62.131 56.3416 62.0681 57.2519H74.1157L73.6847 59.6299H62.1645C62.4804 62.3278 63.4842 64.4523 65.1747 66.0022C66.8639 67.5535 68.9827 68.3298 71.5311 68.3298C74.3339 68.3298 76.8141 67.6305 78.9664 66.2305Z" fill="url(#paint15_linear_62_30)"/>
<defs>
<linearGradient id="paint0_linear_62_30" x1="163" y1="-25.5" x2="-17.5" y2="144" gradientUnits="userSpaceOnUse">
<stop stop-color="white" stop-opacity="0.45"/>
<stop offset="1" stop-color="white" stop-opacity="0.19"/>
</linearGradient>
<linearGradient id="paint1_linear_62_30" x1="33.0322" y1="40.9666" x2="115.521" y2="67.5209" gradientUnits="userSpaceOnUse">
<stop stop-color="#F96300" stop-opacity="0.2"/>
<stop offset="0.4886" stop-color="#FE893C"/>
<stop offset="0.761" stop-color="#FF8B3E"/>
<stop offset="1" stop-color="#FF7D27" stop-opacity="0.5"/>
</linearGradient>
<linearGradient id="paint2_linear_62_30" x1="14.7335" y1="35.0838" x2="125.35" y2="70.3878" gradientUnits="userSpaceOnUse">
<stop offset="0.00037858" stop-color="#30CFFF"/>
<stop offset="0.2288" stop-color="#65AEF8"/>
<stop offset="0.6034" stop-color="#E9A97F"/>
<stop offset="0.869" stop-color="#DB7C3D"/>
<stop offset="0.9988" stop-color="#F96300"/>
</linearGradient>
<linearGradient id="paint3_linear_62_30" x1="7.75106" y1="-7.36876" x2="131.354" y2="89.0419" gradientUnits="userSpaceOnUse">
<stop offset="0.00037858" stop-color="#30CFFF"/>
<stop offset="0.1301" stop-color="#34CCFE"/>
<stop offset="0.2688" stop-color="#41C4FD"/>
<stop offset="0.4117" stop-color="#57B7FA"/>
<stop offset="0.5574" stop-color="#75A4F6"/>
<stop offset="0.7054" stop-color="#9B8CF1"/>
<stop offset="0.8531" stop-color="#CA6FEB"/>
<stop offset="0.9988" stop-color="#FF4EE4"/>
</linearGradient>
<linearGradient id="paint4_linear_62_30" x1="7.75068" y1="-7.36911" x2="131.354" y2="89.0416" gradientUnits="userSpaceOnUse">
<stop offset="0.00037858" stop-color="#30CFFF"/>
<stop offset="0.1301" stop-color="#34CCFE"/>
<stop offset="0.2688" stop-color="#41C4FD"/>
<stop offset="0.4117" stop-color="#57B7FA"/>
<stop offset="0.5574" stop-color="#75A4F6"/>
<stop offset="0.7054" stop-color="#9B8CF1"/>
<stop offset="0.8531" stop-color="#CA6FEB"/>
<stop offset="0.9988" stop-color="#FF4EE4"/>
</linearGradient>
<linearGradient id="paint5_linear_62_30" x1="90.095" y1="54.9144" x2="155.174" y2="111.341" gradientUnits="userSpaceOnUse">
<stop offset="0.00037858" stop-color="#30CFFF"/>
<stop offset="0.0371" stop-color="#47C0FC"/>
<stop offset="0.1141" stop-color="#72A6F6"/>
<stop offset="0.1973" stop-color="#FFDEC0"/>
<stop offset="0.2857" stop-color="#FFD4AC"/>
<stop offset="0.381" stop-color="#FDAB60"/>
<stop offset="0.4857" stop-color="#FA9334"/>
<stop offset="0.6047" stop-color="#FE7A00"/>
<stop offset="0.7502" stop-color="#FE7A00"/>
<stop offset="0.9988" stop-color="#FE7A00"/>
</linearGradient>
<linearGradient id="paint6_linear_62_30" x1="43.1869" y1="-22.326" x2="140.603" y2="53.6588" gradientUnits="userSpaceOnUse">
<stop offset="0.00037858" stop-color="#30CFFF"/>
<stop offset="0.1301" stop-color="#34CCFE"/>
<stop offset="0.2688" stop-color="#41C4FD"/>
<stop offset="0.4117" stop-color="#57B7FA"/>
<stop offset="0.5574" stop-color="#75A4F6"/>
<stop offset="0.7054" stop-color="#9B8CF1"/>
<stop offset="0.8531" stop-color="#CA6FEB"/>
<stop offset="0.9988" stop-color="#FF4EE4"/>
</linearGradient>
<linearGradient id="paint7_linear_62_30" x1="84.2771" y1="16.0996" x2="114.726" y2="68.9234" gradientUnits="userSpaceOnUse">
<stop offset="0.00037858" stop-color="#30CFFF"/>
<stop offset="0.0371" stop-color="#47C0FC"/>
<stop offset="0.1141" stop-color="#72A6F6"/>
<stop offset="0.1973" stop-color="#FFDEC0"/>
<stop offset="0.2857" stop-color="#FFD4AC"/>
<stop offset="0.381" stop-color="#FDAB60"/>
<stop offset="0.4857" stop-color="#FA9334"/>
<stop offset="0.6047" stop-color="#FE7A00"/>
<stop offset="0.7502" stop-color="#FE7A00"/>
<stop offset="0.9988" stop-color="#FE7A00"/>
</linearGradient>
<linearGradient id="paint8_linear_62_30" x1="18.8126" y1="32.1707" x2="129.545" y2="118.542" gradientUnits="userSpaceOnUse">
<stop offset="0.00037858" stop-color="#FFDBBA"/>
<stop offset="0.0371" stop-color="#FFD7B3"/>
<stop offset="0.1141" stop-color="#FEC087"/>
<stop offset="0.1973" stop-color="#FFDEC0"/>
<stop offset="0.2857" stop-color="#FFD4AC"/>
<stop offset="0.381" stop-color="#FDAB60"/>
<stop offset="0.4857" stop-color="#FA9334"/>
<stop offset="0.6047" stop-color="#FE7A00"/>
<stop offset="0.7502" stop-color="#FE7A00"/>
<stop offset="0.9988" stop-color="#FE7A00"/>
</linearGradient>
<radialGradient id="paint9_radial_62_30" cx="0" cy="0" r="1" gradientUnits="userSpaceOnUse" gradientTransform="translate(94.2185 14.8646) rotate(13.4479) scale(14.9551 5.65019)">
<stop stop-color="white"/>
<stop offset="0.1698" stop-color="white"/>
<stop offset="0.2258" stop-color="#FFFBD7" stop-opacity="0.9117"/>
<stop offset="0.3081" stop-color="#FFF5A3" stop-opacity="0.7819"/>
<stop offset="0.3918" stop-color="#FFF176" stop-opacity="0.6499"/>
<stop offset="0.4752" stop-color="#FFED51" stop-opacity="0.5184"/>
<stop offset="0.5583" stop-color="#FFEA35" stop-opacity="0.3875"/>
<stop offset="0.641" stop-color="#FFE820" stop-opacity="0.2572"/>
<stop offset="0.7231" stop-color="#FFE614" stop-opacity="0.1277"/>
<stop offset="0.8041" stop-color="#FFE610" stop-opacity="0"/>
</radialGradient>
<radialGradient id="paint10_radial_62_30" cx="0" cy="0" r="1" gradientUnits="userSpaceOnUse" gradientTransform="translate(94.2184 14.8642) rotate(12.6546) scale(21.4758 13.0309)">
<stop stop-color="#F5E1D4"/>
<stop offset="0.0834" stop-color="#F4D5B8" stop-opacity="0.8962"/>
<stop offset="0.1743" stop-color="#F0BC8B" stop-opacity="0.7833"/>
<stop offset="0.2686" stop-color="#F1AB6A" stop-opacity="0.666"/>
<stop offset="0.365" stop-color="#F7AF6D" stop-opacity="0.5461"/>
<stop offset="0.4642" stop-color="#E38F40" stop-opacity="0.4227"/>
<stop offset="0.5674" stop-color="#E28630" stop-opacity="0.2944"/>
<stop offset="0.677" stop-color="#CF7420" stop-opacity="0.1581"/>
<stop offset="0.8041" stop-color="#DB700E" stop-opacity="0"/>
</radialGradient>
<radialGradient id="paint11_radial_62_30" cx="0" cy="0" r="1" gradientUnits="userSpaceOnUse" gradientTransform="translate(84.7222 41.8833) rotate(13.966) scale(22.1419 14.7211)">
<stop stop-color="white"/>
<stop offset="0.0834" stop-color="#F4D5B8" stop-opacity="0.8962"/>
<stop offset="0.1743" stop-color="#F0BC8B" stop-opacity="0.7833"/>
<stop offset="0.2686" stop-color="#F1AB6A" stop-opacity="0.666"/>
<stop offset="0.365" stop-color="#F7AF6D" stop-opacity="0.5461"/>
<stop offset="0.4642" stop-color="#E38F40" stop-opacity="0.4227"/>
<stop offset="0.5674" stop-color="#E28630" stop-opacity="0.2944"/>
<stop offset="0.677" stop-color="#CF7420" stop-opacity="0.1581"/>
<stop offset="0.8041" stop-color="#DB700E" stop-opacity="0"/>
</radialGradient>
<radialGradient id="paint12_radial_62_30" cx="0" cy="0" r="1" gradientUnits="userSpaceOnUse" gradientTransform="translate(75.4694 69.8362) rotate(-18.7322) scale(23.5695 12.8212)">
<stop stop-color="white"/>
<stop offset="0.0834" stop-color="#F4D5B8" stop-opacity="0.8962"/>
<stop offset="0.1743" stop-color="#F0BC8B" stop-opacity="0.7833"/>
<stop offset="0.2686" stop-color="#F1AB6A" stop-opacity="0.666"/>
<stop offset="0.365" stop-color="#F7AF6D" stop-opacity="0.5461"/>
<stop offset="0.4642" stop-color="#E38F40" stop-opacity="0.4227"/>
<stop offset="0.5674" stop-color="#E28630" stop-opacity="0.2944"/>
<stop offset="0.677" stop-color="#CF7420" stop-opacity="0.1581"/>
<stop offset="0.8041" stop-color="#DB700E" stop-opacity="0"/>
</radialGradient>
<linearGradient id="paint13_linear_62_30" x1="55.9986" y1="54.4205" x2="93.8592" y2="54.4205" gradientUnits="userSpaceOnUse">
<stop stop-color="white" stop-opacity="0.2"/>
<stop offset="0.0881" stop-color="white" stop-opacity="0.5"/>
<stop offset="1" stop-color="white"/>
</linearGradient>
<linearGradient id="paint14_linear_62_30" x1="56.0001" y1="54.4202" x2="93.8601" y2="54.4202" gradientUnits="userSpaceOnUse">
<stop stop-color="#A26C2D"/>
<stop offset="0.1" stop-color="#B5802D"/>
<stop offset="0.25" stop-color="#E2AB2A"/>
<stop offset="0.39" stop-color="#FFF6B0"/>
<stop offset="0.45" stop-color="#DCA52A"/>
<stop offset="0.65" stop-color="#AE742A"/>
<stop offset="0.75" stop-color="#9B5B26"/>
<stop offset="0.91" stop-color="#F0B929"/>
<stop offset="1" stop-color="#FFD972"/>
</linearGradient>
<linearGradient id="paint15_linear_62_30" x1="52.7924" y1="54.4205" x2="90.653" y2="54.4205" gradientUnits="userSpaceOnUse">
<stop stop-color="white" stop-opacity="0.2"/>
<stop offset="0.0881" stop-color="white" stop-opacity="0.5"/>
<stop offset="1" stop-color="white"/>
</linearGradient>
</defs>
</svg>
