<svg width="149" height="106" viewBox="0 0 149 106" fill="none" xmlns="http://www.w3.org/2000/svg">
<rect x="0.25" y="0.25" width="148.5" height="105.5" rx="47.75" fill="#0C323E" stroke="url(#paint0_linear_129_73)" stroke-width="0.5"/>
<path opacity="0.5" d="M115.468 37.7343C117.619 42.9441 118.739 48.5693 118.711 54.1985C118.691 59.8263 117.535 65.4462 115.344 70.6388C113.152 75.8314 109.925 80.5927 105.895 84.5552C101.87 88.5256 97.0425 91.6825 91.789 93.819C86.5342 95.9515 80.8604 97.0622 75.1826 97.0343C69.5061 97.0158 63.8377 95.8692 58.6002 93.6956C53.3641 91.5219 48.5616 88.3239 44.565 84.3269C40.5602 80.3366 37.376 75.5501 35.2211 70.3416C33.0701 65.1317 31.9498 59.5065 31.9779 53.8773C31.9967 48.2495 33.1531 42.6296 35.3442 37.437C37.5366 32.2444 40.7637 27.4844 44.7938 23.5207C48.8186 19.5503 53.6465 16.3933 58.9 14.2568C64.1549 12.1243 69.8287 11.0136 75.5065 11.0415C81.1829 11.06 86.8514 12.2066 92.0888 14.3802C97.3263 16.5539 102.127 19.7533 106.125 23.7489C110.129 27.7392 113.313 32.5258 115.468 37.7343Z" fill="url(#paint1_linear_129_73)" fill-opacity="0.2"/>
<circle cx="75" cy="54" r="44" stroke="url(#paint2_linear_129_73)" stroke-width="2"/>
<path d="M116.49 72.9123C112.623 81.2977 106.049 88.4131 97.937 93.0112L96.3375 90.1462C103.84 85.8799 109.918 79.2926 113.493 71.5362C117.151 63.6976 118.28 54.8424 116.698 46.5221L119.936 45.8758C121.657 54.873 120.442 64.4473 116.49 72.9123Z" fill="url(#paint3_linear_129_73)"/>
<path d="M119.936 45.8741C121.657 54.8726 120.442 64.4457 116.488 72.912C112.621 81.2973 106.048 88.4128 97.9353 93.0109L96.3358 90.1459C103.838 85.8795 109.916 79.2922 113.491 71.5359C117.149 63.6972 118.279 54.8421 116.697 46.5217L119.936 45.8741Z" fill="url(#paint4_linear_129_73)"/>
<path d="M119.936 45.8741C121.657 54.8726 120.442 64.4457 116.488 72.912C112.621 81.2973 106.048 88.4128 97.9353 93.0109L96.3358 90.1459C103.838 85.8795 109.916 79.2922 113.491 71.5359C117.149 63.6972 118.279 54.8421 116.697 46.5217L119.936 45.8741Z" fill="url(#paint5_linear_129_73)"/>
<path d="M116.979 35.2387L113.927 36.4901C111.754 31.4979 108.551 26.8918 104.633 23.1351C100.722 19.3743 95.9811 16.3368 90.8895 14.3224L92.062 11.261C97.5712 13.432 102.7 16.715 106.932 20.7849C111.174 24.8496 114.637 29.8351 116.979 35.2387Z" fill="url(#paint6_linear_129_73)"/>
<path d="M116.979 35.2387L113.927 36.4901C111.754 31.4979 108.551 26.8918 104.633 23.1351C100.722 19.3743 95.9811 16.3368 90.8895 14.3224L92.062 11.261C97.5712 13.432 102.7 16.715 106.932 20.7849C111.174 24.8496 114.637 29.8351 116.979 35.2387Z" fill="url(#paint7_linear_129_73)"/>
<path d="M66.0592 95.0943L65.5372 98.3282C56.7715 96.8021 48.4462 92.6353 42.0282 86.551C35.455 80.3658 30.8105 72.0574 28.9446 63.1545C27.0694 54.3153 28.005 44.8603 31.5828 36.5293C35.0494 28.3775 41.0217 21.278 48.4435 16.4716L50.213 19.2371C43.3546 23.6918 37.8348 30.2619 34.6251 37.8046C31.3097 45.5291 30.441 54.2967 32.1797 62.4883C33.9104 70.7503 38.2189 78.4549 44.3103 84.1836C50.2451 89.8128 57.9467 93.6717 66.0592 95.0943Z" fill="url(#paint8_linear_129_73)"/>
<path d="M55.1062 60.9357L67.7935 53.8138L84.2608 17L55.1062 60.9357Z" fill="url(#paint9_linear_129_73)"/>
<path d="M79.4462 25.7484L67.1592 53.2158L57.693 58.5299L79.4462 25.7484Z" fill="url(#paint10_linear_129_73)"/>
<path d="M84.2609 17L67.7936 53.8138L76.8086 48.753L84.2609 17Z" fill="url(#paint11_linear_129_73)"/>
<path d="M81.9771 23.7676L76.2202 48.297L69.2559 52.2063L81.9771 23.7676Z" fill="url(#paint12_linear_129_73)"/>
<path d="M55.1062 60.9357L55 61.0958H72.4988L85.3566 53.8138H67.7935L55.1062 60.9357Z" fill="url(#paint13_linear_129_73)"/>
<path d="M57.4485 60.4073L67.9678 54.5023H82.7497L72.3232 60.4073H57.4485Z" fill="url(#paint14_linear_129_73)"/>
<path d="M94 48.8818H76.7785L76.8086 48.753L67.7936 53.8138H85.3567L93.9578 48.9423L94 48.8818Z" fill="url(#paint15_linear_129_73)"/>
<path d="M70.9808 52.9786L76.7908 49.7169H90.9023L85.1437 52.9786H70.9808Z" fill="url(#paint16_linear_129_73)"/>
<path d="M72.4989 61.0958H72.6183L64.7252 90.934L64.7212 90.9492L85.3329 53.8272L72.4989 61.0958Z" fill="url(#paint17_linear_129_73)"/>
<path d="M73.3415 61.5746L83.184 56.0002L67.2018 84.7833L73.3415 61.5746Z" fill="url(#paint18_linear_129_73)"/>
<path d="M93.9579 48.9423L85.3329 53.8272L64.7211 90.9492L64.7076 91L93.9579 48.9423Z" fill="url(#paint19_linear_129_73)"/>
<path d="M85.8283 54.3346L91.6862 51.0168L71.7701 79.6536L85.8283 54.3346Z" fill="url(#paint20_linear_129_73)"/>
<path d="M109.763 18.3411C112.772 22.269 108.699 23.8973 100.667 21.9771C92.6347 20.0569 83.6829 15.3168 80.674 11.3889C77.6651 7.46094 81.7381 5.83403 89.7703 7.75289C97.8025 9.67307 106.754 14.4131 109.763 18.3411Z" fill="url(#paint21_radial_129_73)"/>
<path d="M115.813 21.6891C118.62 28.9797 111.676 31.8341 100.301 28.0654C88.9271 24.2967 77.431 15.3301 74.6242 8.03952C71.8174 0.74893 78.7614 -2.1068 90.1358 1.66324C101.51 5.43195 113.006 14.3986 115.813 21.6891Z" fill="url(#paint22_radial_129_73)"/>
<defs>
<linearGradient id="paint0_linear_129_73" x1="163" y1="-25.5" x2="-17.5" y2="144" gradientUnits="userSpaceOnUse">
<stop stop-color="white" stop-opacity="0.45"/>
<stop offset="1" stop-color="white" stop-opacity="0.19"/>
</linearGradient>
<linearGradient id="paint1_linear_129_73" x1="34.0322" y1="40.9666" x2="116.521" y2="67.5209" gradientUnits="userSpaceOnUse">
<stop stop-color="#F96300" stop-opacity="0.2"/>
<stop offset="0.4886" stop-color="#FE893C"/>
<stop offset="0.761" stop-color="#FF8B3E"/>
<stop offset="1" stop-color="#FF7D27" stop-opacity="0.5"/>
</linearGradient>
<linearGradient id="paint2_linear_129_73" x1="15.7335" y1="35.0838" x2="126.35" y2="70.3878" gradientUnits="userSpaceOnUse">
<stop offset="0.00037858" stop-color="#30CFFF"/>
<stop offset="0.2288" stop-color="#65AEF8"/>
<stop offset="0.6034" stop-color="#E9A97F"/>
<stop offset="0.869" stop-color="#DB7C3D"/>
<stop offset="0.9988" stop-color="#F96300"/>
</linearGradient>
<linearGradient id="paint3_linear_129_73" x1="8.75106" y1="-7.36876" x2="132.354" y2="89.0419" gradientUnits="userSpaceOnUse">
<stop offset="0.00037858" stop-color="#30CFFF"/>
<stop offset="0.1301" stop-color="#34CCFE"/>
<stop offset="0.2688" stop-color="#41C4FD"/>
<stop offset="0.4117" stop-color="#57B7FA"/>
<stop offset="0.5574" stop-color="#75A4F6"/>
<stop offset="0.7054" stop-color="#9B8CF1"/>
<stop offset="0.8531" stop-color="#CA6FEB"/>
<stop offset="0.9988" stop-color="#FF4EE4"/>
</linearGradient>
<linearGradient id="paint4_linear_129_73" x1="8.75068" y1="-7.36911" x2="132.354" y2="89.0416" gradientUnits="userSpaceOnUse">
<stop offset="0.00037858" stop-color="#30CFFF"/>
<stop offset="0.1301" stop-color="#34CCFE"/>
<stop offset="0.2688" stop-color="#41C4FD"/>
<stop offset="0.4117" stop-color="#57B7FA"/>
<stop offset="0.5574" stop-color="#75A4F6"/>
<stop offset="0.7054" stop-color="#9B8CF1"/>
<stop offset="0.8531" stop-color="#CA6FEB"/>
<stop offset="0.9988" stop-color="#FF4EE4"/>
</linearGradient>
<linearGradient id="paint5_linear_129_73" x1="91.095" y1="54.9144" x2="156.174" y2="111.341" gradientUnits="userSpaceOnUse">
<stop offset="0.00037858" stop-color="#30CFFF"/>
<stop offset="0.0371" stop-color="#47C0FC"/>
<stop offset="0.1141" stop-color="#72A6F6"/>
<stop offset="0.1973" stop-color="#FFDEC0"/>
<stop offset="0.2857" stop-color="#FFD4AC"/>
<stop offset="0.381" stop-color="#FDAB60"/>
<stop offset="0.4857" stop-color="#FA9334"/>
<stop offset="0.6047" stop-color="#FE7A00"/>
<stop offset="0.7502" stop-color="#FE7A00"/>
<stop offset="0.9988" stop-color="#FE7A00"/>
</linearGradient>
<linearGradient id="paint6_linear_129_73" x1="44.1869" y1="-22.326" x2="141.603" y2="53.6588" gradientUnits="userSpaceOnUse">
<stop offset="0.00037858" stop-color="#30CFFF"/>
<stop offset="0.1301" stop-color="#34CCFE"/>
<stop offset="0.2688" stop-color="#41C4FD"/>
<stop offset="0.4117" stop-color="#57B7FA"/>
<stop offset="0.5574" stop-color="#75A4F6"/>
<stop offset="0.7054" stop-color="#9B8CF1"/>
<stop offset="0.8531" stop-color="#CA6FEB"/>
<stop offset="0.9988" stop-color="#FF4EE4"/>
</linearGradient>
<linearGradient id="paint7_linear_129_73" x1="85.2771" y1="16.0996" x2="115.726" y2="68.9234" gradientUnits="userSpaceOnUse">
<stop offset="0.00037858" stop-color="#30CFFF"/>
<stop offset="0.0371" stop-color="#47C0FC"/>
<stop offset="0.1141" stop-color="#72A6F6"/>
<stop offset="0.1973" stop-color="#FFDEC0"/>
<stop offset="0.2857" stop-color="#FFD4AC"/>
<stop offset="0.381" stop-color="#FDAB60"/>
<stop offset="0.4857" stop-color="#FA9334"/>
<stop offset="0.6047" stop-color="#FE7A00"/>
<stop offset="0.7502" stop-color="#FE7A00"/>
<stop offset="0.9988" stop-color="#FE7A00"/>
</linearGradient>
<linearGradient id="paint8_linear_129_73" x1="19.8126" y1="32.1707" x2="130.545" y2="118.542" gradientUnits="userSpaceOnUse">
<stop offset="0.00037858" stop-color="#FFDBBA"/>
<stop offset="0.0371" stop-color="#FFD7B3"/>
<stop offset="0.1141" stop-color="#FEC087"/>
<stop offset="0.1973" stop-color="#FFDEC0"/>
<stop offset="0.2857" stop-color="#FFD4AC"/>
<stop offset="0.381" stop-color="#FDAB60"/>
<stop offset="0.4857" stop-color="#FA9334"/>
<stop offset="0.6047" stop-color="#FE7A00"/>
<stop offset="0.7502" stop-color="#FE7A00"/>
<stop offset="0.9988" stop-color="#FE7A00"/>
</linearGradient>
<linearGradient id="paint9_linear_129_73" x1="55.1062" y1="38.9679" x2="84.261" y2="38.9679" gradientUnits="userSpaceOnUse">
<stop stop-color="#59595C"/>
<stop offset="0.15" stop-color="#808083"/>
<stop offset="0.32" stop-color="white"/>
<stop offset="0.54" stop-color="#919395"/>
<stop offset="0.67" stop-color="#808083"/>
<stop offset="1" stop-color="#CFD1D2"/>
</linearGradient>
<linearGradient id="paint10_linear_129_73" x1="57.6931" y1="42.1391" x2="79.4461" y2="42.1391" gradientUnits="userSpaceOnUse">
<stop stop-color="#CFD1D2"/>
<stop offset="0.33" stop-color="#808083"/>
<stop offset="0.46" stop-color="#919395"/>
<stop offset="0.68" stop-color="white"/>
<stop offset="0.85" stop-color="#808083"/>
<stop offset="1" stop-color="#59595C"/>
</linearGradient>
<linearGradient id="paint11_linear_129_73" x1="67.7936" y1="35.4068" x2="84.261" y2="35.4068" gradientUnits="userSpaceOnUse">
<stop stop-color="#FFD972"/>
<stop offset="0.09" stop-color="#F0B929"/>
<stop offset="0.25" stop-color="#9B5B26"/>
<stop offset="0.35" stop-color="#AE742A"/>
<stop offset="0.55" stop-color="#DCA52A"/>
<stop offset="0.61" stop-color="#FFF6B0"/>
<stop offset="0.75" stop-color="#E2AB2A"/>
<stop offset="0.9" stop-color="#B5802D"/>
<stop offset="1" stop-color="#A26C2D"/>
</linearGradient>
<linearGradient id="paint12_linear_129_73" x1="69.2559" y1="37.987" x2="81.9771" y2="37.987" gradientUnits="userSpaceOnUse">
<stop stop-color="#A26C2D"/>
<stop offset="0.1" stop-color="#B5802D"/>
<stop offset="0.25" stop-color="#E2AB2A"/>
<stop offset="0.39" stop-color="#FFF6B0"/>
<stop offset="0.45" stop-color="#DCA52A"/>
<stop offset="0.65" stop-color="#AE742A"/>
<stop offset="0.75" stop-color="#9B5B26"/>
<stop offset="0.91" stop-color="#F0B929"/>
<stop offset="1" stop-color="#FFD972"/>
</linearGradient>
<linearGradient id="paint13_linear_129_73" x1="55" y1="57.4548" x2="85.3568" y2="57.4548" gradientUnits="userSpaceOnUse">
<stop stop-color="#FFD972"/>
<stop offset="0.09" stop-color="#F0B929"/>
<stop offset="0.25" stop-color="#9B5B26"/>
<stop offset="0.35" stop-color="#AE742A"/>
<stop offset="0.55" stop-color="#DCA52A"/>
<stop offset="0.61" stop-color="#FFF6B0"/>
<stop offset="0.75" stop-color="#E2AB2A"/>
<stop offset="0.9" stop-color="#B5802D"/>
<stop offset="1" stop-color="#A26C2D"/>
</linearGradient>
<linearGradient id="paint14_linear_129_73" x1="57.4485" y1="57.4548" x2="82.7496" y2="57.4548" gradientUnits="userSpaceOnUse">
<stop stop-color="#A26C2D"/>
<stop offset="0.1" stop-color="#B5802D"/>
<stop offset="0.25" stop-color="#E2AB2A"/>
<stop offset="0.39" stop-color="#FFF6B0"/>
<stop offset="0.45" stop-color="#DCA52A"/>
<stop offset="0.65" stop-color="#AE742A"/>
<stop offset="0.75" stop-color="#9B5B26"/>
<stop offset="0.91" stop-color="#F0B929"/>
<stop offset="1" stop-color="#FFD972"/>
</linearGradient>
<linearGradient id="paint15_linear_129_73" x1="67.7937" y1="51.2833" x2="94" y2="51.2833" gradientUnits="userSpaceOnUse">
<stop stop-color="#59595C"/>
<stop offset="0.15" stop-color="#808083"/>
<stop offset="0.32" stop-color="white"/>
<stop offset="0.54" stop-color="#919395"/>
<stop offset="0.67" stop-color="#808083"/>
<stop offset="1" stop-color="#CFD1D2"/>
</linearGradient>
<linearGradient id="paint16_linear_129_73" x1="70.9809" y1="51.3477" x2="90.9024" y2="51.3477" gradientUnits="userSpaceOnUse">
<stop stop-color="#CFD1D2"/>
<stop offset="0.33" stop-color="#808083"/>
<stop offset="0.46" stop-color="#919395"/>
<stop offset="0.68" stop-color="white"/>
<stop offset="0.85" stop-color="#808083"/>
<stop offset="1" stop-color="#59595C"/>
</linearGradient>
<linearGradient id="paint17_linear_129_73" x1="64.7212" y1="72.3882" x2="85.3329" y2="72.3882" gradientUnits="userSpaceOnUse">
<stop stop-color="#59595C"/>
<stop offset="0.15" stop-color="#808083"/>
<stop offset="0.32" stop-color="white"/>
<stop offset="0.54" stop-color="#919395"/>
<stop offset="0.67" stop-color="#808083"/>
<stop offset="1" stop-color="#CFD1D2"/>
</linearGradient>
<linearGradient id="paint18_linear_129_73" x1="67.2019" y1="70.3919" x2="83.184" y2="70.3919" gradientUnits="userSpaceOnUse">
<stop stop-color="#CFD1D2"/>
<stop offset="0.33" stop-color="#808083"/>
<stop offset="0.46" stop-color="#919395"/>
<stop offset="0.68" stop-color="white"/>
<stop offset="0.85" stop-color="#808083"/>
<stop offset="1" stop-color="#59595C"/>
</linearGradient>
<linearGradient id="paint19_linear_129_73" x1="64.7077" y1="69.9712" x2="93.9579" y2="69.9712" gradientUnits="userSpaceOnUse">
<stop stop-color="#FFD972"/>
<stop offset="0.09" stop-color="#F0B929"/>
<stop offset="0.25" stop-color="#9B5B26"/>
<stop offset="0.35" stop-color="#AE742A"/>
<stop offset="0.55" stop-color="#DCA52A"/>
<stop offset="0.61" stop-color="#FFF6B0"/>
<stop offset="0.75" stop-color="#E2AB2A"/>
<stop offset="0.9" stop-color="#B5802D"/>
<stop offset="1" stop-color="#A26C2D"/>
</linearGradient>
<linearGradient id="paint20_linear_129_73" x1="71.77" y1="65.3353" x2="91.6862" y2="65.3353" gradientUnits="userSpaceOnUse">
<stop stop-color="#A26C2D"/>
<stop offset="0.1" stop-color="#B5802D"/>
<stop offset="0.25" stop-color="#E2AB2A"/>
<stop offset="0.39" stop-color="#FFF6B0"/>
<stop offset="0.45" stop-color="#DCA52A"/>
<stop offset="0.65" stop-color="#AE742A"/>
<stop offset="0.75" stop-color="#9B5B26"/>
<stop offset="0.91" stop-color="#F0B929"/>
<stop offset="1" stop-color="#FFD972"/>
</linearGradient>
<radialGradient id="paint21_radial_129_73" cx="0" cy="0" r="1" gradientUnits="userSpaceOnUse" gradientTransform="translate(95.2185 14.8646) rotate(13.4479) scale(14.9551 5.65019)">
<stop stop-color="white"/>
<stop offset="0.1698" stop-color="white"/>
<stop offset="0.2258" stop-color="#FFFBD7" stop-opacity="0.9117"/>
<stop offset="0.3081" stop-color="#FFF5A3" stop-opacity="0.7819"/>
<stop offset="0.3918" stop-color="#FFF176" stop-opacity="0.6499"/>
<stop offset="0.4752" stop-color="#FFED51" stop-opacity="0.5184"/>
<stop offset="0.5583" stop-color="#FFEA35" stop-opacity="0.3875"/>
<stop offset="0.641" stop-color="#FFE820" stop-opacity="0.2572"/>
<stop offset="0.7231" stop-color="#FFE614" stop-opacity="0.1277"/>
<stop offset="0.8041" stop-color="#FFE610" stop-opacity="0"/>
</radialGradient>
<radialGradient id="paint22_radial_129_73" cx="0" cy="0" r="1" gradientUnits="userSpaceOnUse" gradientTransform="translate(95.2184 14.8642) rotate(12.6546) scale(21.4758 13.0309)">
<stop stop-color="#F5E1D4"/>
<stop offset="0.0834" stop-color="#F4D5B8" stop-opacity="0.8962"/>
<stop offset="0.1743" stop-color="#F0BC8B" stop-opacity="0.7833"/>
<stop offset="0.2686" stop-color="#F1AB6A" stop-opacity="0.666"/>
<stop offset="0.365" stop-color="#F7AF6D" stop-opacity="0.5461"/>
<stop offset="0.4642" stop-color="#E38F40" stop-opacity="0.4227"/>
<stop offset="0.5674" stop-color="#E28630" stop-opacity="0.2944"/>
<stop offset="0.677" stop-color="#CF7420" stop-opacity="0.1581"/>
<stop offset="0.8041" stop-color="#DB700E" stop-opacity="0"/>
</radialGradient>
</defs>
</svg>
