<svg width="14" height="13" viewBox="0 0 14 13" fill="none" xmlns="http://www.w3.org/2000/svg">
<path d="M9.32658 11.1944C8.46802 11.1952 7.6258 10.9598 6.89207 10.514C6.15835 10.0681 5.56141 9.42905 5.16658 8.66667H9.32658V7.22222H4.68991C4.6538 6.98389 4.63213 6.74556 4.63213 6.5C4.63213 6.25445 4.6538 6.01611 4.68991 5.77778H9.32658V4.33334H5.16658C5.56211 3.57152 6.15921 2.93293 6.89278 2.48719C7.62634 2.04145 8.46821 1.80567 9.32658 1.80556C10.4894 1.80556 11.5582 2.23167 12.3816 2.93945L13.6599 1.66111C12.4707 0.590395 10.9268 -0.00144205 9.32658 2.63867e-06C6.49547 2.63867e-06 4.09769 1.81278 3.20213 4.33334H0.659912V5.77778H2.86991C2.81142 6.25748 2.81142 6.74252 2.86991 7.22222H0.659912V8.66667H3.20213C4.09769 11.1872 6.49547 13 9.32658 13C10.9949 13 12.5116 12.3717 13.6599 11.3389L12.3744 10.0606C11.5582 10.7683 10.4966 11.1944 9.32658 11.1944Z" fill="#00FFF0"/>
</svg>
