<svg width="25" height="21" viewBox="0 0 25 21" fill="none" xmlns="http://www.w3.org/2000/svg">
<path d="M21.9366 0C20.2476 0 18.8733 1.37422 18.8733 3.06336C18.8733 3.99465 19.2915 4.82958 19.9495 5.39191L17.071 10.8609C16.8172 10.7926 16.5508 10.7556 16.2757 10.7556C15.6183 10.7556 15.0091 10.9645 14.5096 11.3183L12.3191 9.3424C12.5695 8.89869 12.7132 8.38701 12.7132 7.84228C12.7132 6.1531 11.3389 4.77892 9.64971 4.77892C7.96066 4.77892 6.58636 6.15315 6.58636 7.84228C6.58636 8.65768 6.90719 9.39902 7.42851 9.94849L4.16536 14.8224C3.82312 14.6899 3.45176 14.6165 3.06332 14.6165C1.37418 14.6165 0 15.9907 0 17.6799C0 19.369 1.37418 20.7432 3.06336 20.7432C4.75241 20.7432 6.12672 19.369 6.12672 17.6799C6.12672 16.8645 5.80588 16.123 5.28456 15.5736L8.54771 10.6997C8.88995 10.8321 9.26131 10.9056 9.64975 10.9056C10.3072 10.9056 10.9163 10.6967 11.4159 10.3429L13.6064 12.3187C13.3561 12.7624 13.2123 13.2741 13.2123 13.8188C13.2123 15.508 14.5866 16.8822 16.2757 16.8822C17.9649 16.8822 19.3392 15.508 19.3392 13.8188C19.3392 12.8875 18.9208 12.0526 18.2629 11.4903L21.1413 6.02136C21.3952 6.08966 21.6616 6.12672 21.9367 6.12672C23.6259 6.12672 25 4.75249 25 3.06336C25 1.37422 23.6258 0 21.9366 0ZM3.06336 19.3954C2.1174 19.3954 1.34783 18.6258 1.34783 17.6799C1.34783 16.7339 2.1174 15.9643 3.06336 15.9643C4.00931 15.9643 4.77888 16.7339 4.77888 17.6799C4.77888 18.6258 4.00931 19.3954 3.06336 19.3954ZM9.64971 9.55776C8.70376 9.55776 7.93419 8.78819 7.93419 7.84232C7.93419 6.89636 8.70376 6.1268 9.64971 6.1268C10.5957 6.1268 11.3654 6.89636 11.3654 7.84232C11.3654 8.78819 10.5957 9.55776 9.64971 9.55776ZM14.5602 13.8189C14.5602 12.873 15.3298 12.1035 16.2757 12.1035C17.2217 12.1035 17.9914 12.873 17.9914 13.8189C17.9914 14.7648 17.2217 15.5344 16.2757 15.5344C15.3298 15.5344 14.5602 14.7648 14.5602 13.8189ZM21.9366 4.77888C20.9907 4.77888 20.2211 4.00931 20.2211 3.06336C20.2211 2.1174 20.9907 1.34783 21.9366 1.34783C22.8826 1.34783 23.6522 2.1174 23.6522 3.06336C23.6522 4.00935 22.8826 4.77888 21.9366 4.77888Z" fill="#32BC30"/>
</svg>
