<svg width="25" height="24" viewBox="0 0 25 24" fill="none" xmlns="http://www.w3.org/2000/svg">
<path d="M0.417528 9.58623C0.350278 9.5821 0.283098 9.59548 0.222015 9.62519C0.160932 9.65489 0.107858 9.69998 0.0675547 9.75642C-0.107432 10.0245 0.0940062 10.2925 0.258819 10.4882C0.728842 11.0499 2.06973 12.9028 2.32204 13.2156C2.36013 13.266 2.40866 13.3068 2.46399 13.3348C2.51932 13.3629 2.58 13.3775 2.64149 13.3775C2.70297 13.3775 2.76366 13.3629 2.81899 13.3348C2.87432 13.3068 2.92285 13.266 2.96094 13.2156C3.20918 12.9156 4.51954 11.1499 5.02212 10.5818C5.19711 10.3691 5.45755 10.0926 5.27239 9.79897C5.23254 9.74266 5.1803 9.69721 5.12009 9.66647C5.05988 9.63574 4.99347 9.62062 4.92649 9.6224L3.66292 9.61176C4.05459 7.63018 5.04322 5.83195 6.48383 4.48077C7.92443 3.12958 9.74121 2.29655 11.6677 2.10384C13.5943 1.91112 15.5291 2.36886 17.1887 3.40992C18.8482 4.45098 20.145 6.0206 20.8889 7.88858L22.6815 7.10995C21.7714 4.8015 20.1668 2.86591 18.1105 1.59622C16.0542 0.326521 13.6582 -0.208148 11.2853 0.0731525C8.91237 0.354453 6.69171 1.43641 4.9595 3.15522C3.22729 4.87403 2.07784 7.13611 1.68516 9.599L0.417528 9.58623V9.58623ZM11.462 6.65682V5.54845H13.2445V6.63342C14.0602 6.67949 14.8708 6.7969 15.6678 6.98444V8.97354C15.2405 8.93951 14.7597 8.91185 14.2252 8.89058C13.6907 8.8693 13.2051 8.85866 12.7683 8.85866C12.5348 8.85662 12.3014 8.87369 12.0704 8.90972C11.1344 9.06715 11.1243 10.3521 12.3349 10.3521H13.2465C13.8072 10.3321 14.3646 10.4494 14.8743 10.6946C15.2795 10.8966 15.6186 11.2193 15.8489 11.6221C16.0727 12.0272 16.1866 12.4883 16.1785 12.956V13.3815C16.1785 14.1956 16.0246 14.8182 15.7167 15.2493C15.3922 15.692 14.9277 15.9997 14.4063 16.1173C14.0287 16.231 13.6406 16.3023 13.2485 16.3301V17.532H11.462V16.3215C10.6439 16.2843 9.83107 16.1653 9.03461 15.9663V13.9814C10.0906 14.0686 11.169 14.0984 12.2271 14.0984C12.4843 14.1034 12.7413 14.0813 12.9942 14.0325C13.9383 13.8346 13.7857 12.7199 12.8823 12.7199H12.1437C11.0653 12.7199 10.2473 12.5008 9.68979 12.0625C9.13228 11.6243 8.85352 10.8896 8.85352 9.85854V9.43306C8.85352 8.4885 9.16008 7.77937 9.77321 7.30567C10.2658 6.92477 10.8512 6.69692 11.462 6.64831V6.65682ZM23.3856 13.2709C23.0162 15.8232 21.8353 18.1711 20.0335 19.9359C18.2317 21.7007 15.9139 22.7796 13.4538 22.9986C10.9938 23.2176 8.53485 22.5639 6.47359 21.143C4.41234 19.722 2.86889 17.6167 2.09211 15.1664L3.92337 14.5282C4.55904 16.5123 5.80539 18.2204 7.4677 19.3856C9.13002 20.5508 11.1147 21.1075 13.1116 20.9687C15.1085 20.83 17.0052 20.0035 18.5054 18.6185C20.0056 17.2336 21.0248 15.368 21.4037 13.3134L20.0812 13.3432C20.0154 13.347 19.9498 13.3341 19.8899 13.3056C19.83 13.277 19.7777 13.2337 19.7373 13.1794C19.5338 12.8922 19.7963 12.5965 19.9652 12.3901C20.4515 11.8051 21.711 9.99894 21.949 9.69047C21.9861 9.63943 22.0337 9.59781 22.0883 9.56871C22.1429 9.53961 22.2031 9.52378 22.2644 9.52241C22.3261 9.52097 22.3872 9.53421 22.4433 9.56111C22.4993 9.58801 22.5488 9.62788 22.5879 9.67771C22.8504 9.98193 24.2442 11.7923 24.7305 12.3391C24.8994 12.5284 25.109 12.7901 24.934 13.0624C24.8954 13.1206 24.8436 13.1677 24.7832 13.1997C24.7228 13.2316 24.6557 13.2473 24.5881 13.2453L23.3774 13.2709H23.3856Z" fill="#C0C8CE"/>
</svg>
